<?xml version="1.0" standalone="no"?><!DOCTYPE svg PUBLIC "-//W3C//DTD SVG 1.1//EN" "http://www.w3.org/Graphics/SVG/1.1/DTD/svg11.dtd"><svg t="1521963554033" class="icon" style="" viewBox="0 0 1024 1024" version="1.1" xmlns="http://www.w3.org/2000/svg" p-id="2111" xmlns:xlink="http://www.w3.org/1999/xlink" width="32" height="32"><defs><style type="text/css"></style></defs><path d="M301.812 510.388c0 17.766-14.404 32.153-32.153 32.153h-162.877c-17.766 0-32.153-14.389-32.153-32.153 0-17.748 14.389-32.153 32.153-32.153h162.877c17.748 0 32.153 14.404 32.153 32.153z" p-id="2112"></path><path d="M948.383 510.388c0 17.766-14.389 32.153-32.153 32.153h-162.877c-17.748 0-32.153-14.389-32.153-32.153 0-17.748 14.404-32.153 32.153-32.153h162.877c17.766 0 32.153 14.404 32.153 32.153z" p-id="2113"></path><path d="M543.659 105.664v162.877c0 17.766-14.389 32.153-32.153 32.153s-32.153-14.389-32.153-32.153v-162.877c0-17.766 14.389-32.153 32.153-32.153 17.766 0 32.153 14.389 32.153 32.153z" p-id="2114"></path><path d="M543.659 752.236v162.892c0 17.748-14.389 32.153-32.153 32.153s-32.153-14.404-32.153-32.153v-162.892c0-17.748 14.389-32.153 32.153-32.153 17.766 0 32.153 14.404 32.153 32.153z" p-id="2115"></path><path d="M329.932 405.486c-5.947 10.322-16.77 16.077-27.86 16.077-5.465 0-10.996-1.383-16.061-4.308l-141.045-81.478c-15.371-8.89-20.627-28.553-11.753-43.924 8.89-15.385 28.553-20.643 43.924-11.769l141.045 81.478c15.371 8.89 20.643 28.553 11.753 43.924z" p-id="2116"></path><path d="M889.799 728.941c-5.964 10.304-16.77 16.077-27.877 16.077-5.45 0-10.979-1.397-16.045-4.327l-141.045-81.478c-15.371-8.877-20.643-28.553-11.753-43.924 8.877-15.385 28.553-20.643 43.924-11.753l141.045 81.478c15.371 8.877 20.627 28.553 11.753 43.924z" p-id="2117"></path><path d="M741.809 176.035l-81.478 141.027c-5.947 10.304-16.77 16.077-27.877 16.077-5.45 0-10.979-1.397-16.045-4.327-15.385-8.877-20.643-28.539-11.753-43.924l81.478-141.027c8.877-15.385 28.539-20.643 43.924-11.769 15.371 8.89 20.643 28.553 11.753 43.939z" p-id="2118"></path><path d="M418.372 735.885l-81.478 141.045c-5.964 10.304-16.77 16.077-27.877 16.077-5.465 0-10.996-1.397-16.061-4.327-15.371-8.89-20.643-28.553-11.753-43.924l81.478-141.045c8.89-15.371 28.553-20.627 43.924-11.753 15.385 8.89 20.643 28.553 11.769 43.924z" p-id="2119"></path><path d="M406.716 328.75c-5.047 2.925-10.579 4.308-16.027 4.308-11.125 0-21.931-5.772-27.877-16.093l-81.397-141.074c-8.877-15.385-3.601-35.047 11.783-43.924s35.047-3.601 43.924 11.783l81.381 141.074c8.877 15.385 3.601 35.047-11.783 43.924z" p-id="2120"></path><path d="M729.815 888.826c-5.063 2.909-10.597 4.308-16.045 4.308-11.108 0-21.931-5.772-27.877-16.093l-81.381-141.091c-8.877-15.385-3.601-35.047 11.783-43.924 15.371-8.877 35.033-3.585 43.906 11.783l81.397 141.091c8.877 15.385 3.601 35.047-11.783 43.924z" p-id="2121"></path><path d="M878.144 336.001l-141.074 81.397c-5.063 2.909-10.597 4.308-16.045 4.308-11.108 0-21.931-5.772-27.877-16.093-8.877-15.385-3.601-35.047 11.783-43.924l141.091-81.397c15.371-8.859 35.033-3.585 43.906 11.783 8.877 15.385 3.601 35.047-11.783 43.924z" p-id="2122"></path><path d="M318.083 659.102l-141.091 81.381c-5.047 2.925-10.579 4.308-16.027 4.308-11.125 0-21.931-5.772-27.877-16.093-8.877-15.385-3.601-35.047 11.783-43.924l141.074-81.381c15.385-8.877 35.047-3.601 43.924 11.783s3.601 35.047-11.783 43.924z" p-id="2123"></path></svg>