<?xml version="1.0" standalone="no"?><!DOCTYPE svg PUBLIC "-//W3C//DTD SVG 1.1//EN" "http://www.w3.org/Graphics/SVG/1.1/DTD/svg11.dtd"><svg t="1522830444386" class="icon" style="" viewBox="0 0 1126 1024" version="1.1" xmlns="http://www.w3.org/2000/svg" p-id="2510" xmlns:xlink="http://www.w3.org/1999/xlink" width="140.75" height="128"><defs><style type="text/css"></style></defs><path d="M129.9712 160.4608C129.9712 141.952 144.128 128 162.9184 128h183.6544V0H165.632C75.0592 0 0 71.2448 0 160.4608v180.864h129.9712V160.4608zM962.816 0h-182.9888v128h182.016c18.7648 0 34.5856 13.952 34.5856 32.4608v180.864H1126.4V160.4608C1126.4 71.2448 1053.3888 0 962.816 0zM996.4288 860.8768c0 18.5088-14.1568 32.4608-32.9472 32.4608h-183.6544V1024h183.6544C1054.0544 1024 1126.4 950.0928 1126.4 860.8768v-178.2016h-129.9712v178.2016zM162.9184 893.3376c-18.7904 0-32.9472-13.952-32.9472-32.4608v-178.2016H0v178.2016C0 950.0928 75.0592 1024 165.632 1024h180.9408v-130.6624H162.9184z" p-id="2511" fill="#ffffff"></path></svg>